<svg width="388" height="317" viewBox="0 0 388 317" fill="none" xmlns="http://www.w3.org/2000/svg">
<g clip-path="url(#clip0_320_801)">
<path d="M385.126 183.755H88.872C88.1099 183.754 87.3792 183.446 86.8404 182.899C86.3015 182.351 85.9984 181.609 85.9976 180.835V2.91983C85.9984 2.1457 86.3015 1.40352 86.8404 0.856132C87.3792 0.30874 88.1099 0.000845074 88.872 0H385.126C385.888 0.000845076 386.618 0.308741 387.157 0.856133C387.696 1.40352 387.999 2.1457 388 2.91983V180.835C387.999 181.609 387.696 182.351 387.157 182.899C386.618 183.446 385.888 183.754 385.126 183.755ZM88.872 1.16793C88.4147 1.16844 87.9763 1.35318 87.653 1.68161C87.3297 2.01005 87.1478 2.45535 87.1473 2.91983V180.835C87.1478 181.299 87.3297 181.745 87.653 182.073C87.9763 182.402 88.4147 182.586 88.872 182.587H385.126C385.583 182.586 386.021 182.402 386.345 182.073C386.668 181.745 386.85 181.299 386.85 180.835V2.91983C386.85 2.45536 386.668 2.01005 386.345 1.68161C386.021 1.35318 385.583 1.16844 385.126 1.16793H88.872Z" fill="#E6E6E6"/>
<path d="M208.442 14.2093C207.844 14.2195 207.274 14.4678 206.855 14.9008C206.436 15.3339 206.201 15.9169 206.201 16.5242C206.201 17.1315 206.436 17.7145 206.855 18.1475C207.274 18.5805 207.844 18.8288 208.442 18.839H265.58C266.183 18.8481 266.765 18.6138 267.198 18.1877C267.632 17.7615 267.881 17.1782 267.892 16.5655C267.903 15.9528 267.674 15.3608 267.256 14.9191C266.838 14.4775 266.264 14.2223 265.661 14.2094L265.654 14.2093C265.629 14.2089 265.604 14.2089 265.58 14.2093H208.442Z" fill="#3F3D56"/>
<path d="M278.537 13.5646C278.453 13.65 278.406 13.7658 278.406 13.8866C278.406 14.0074 278.453 14.1233 278.537 14.2087L280.462 16.1642H275.715C275.596 16.1646 275.483 16.2127 275.399 16.2981C275.315 16.3835 275.268 16.4992 275.268 16.6197C275.268 16.7403 275.315 16.856 275.399 16.9414C275.483 17.0267 275.596 17.0749 275.715 17.0753H280.462L278.537 19.0307C278.495 19.073 278.462 19.1232 278.44 19.1785C278.417 19.2338 278.406 19.293 278.406 19.3528C278.406 19.4126 278.417 19.4719 278.44 19.5271C278.462 19.5824 278.495 19.6326 278.537 19.6749C278.579 19.7172 278.628 19.7508 278.682 19.7737C278.737 19.7966 278.795 19.8083 278.854 19.8083C278.913 19.8083 278.971 19.7966 279.026 19.7737C279.08 19.7508 279.13 19.7172 279.171 19.6749L281.862 16.9419C281.946 16.8564 281.993 16.7406 281.993 16.6197C281.993 16.4989 281.946 16.3831 281.862 16.2976L279.171 13.5646C279.13 13.5223 279.08 13.4887 279.026 13.4658C278.971 13.4429 278.913 13.4312 278.854 13.4312C278.795 13.4312 278.737 13.4429 278.683 13.4658C278.628 13.4887 278.579 13.5223 278.537 13.5646Z" fill="#E6E6E6"/>
<path d="M195.461 13.5646C195.545 13.65 195.592 13.7658 195.592 13.8866C195.592 14.0075 195.545 14.1233 195.461 14.2087L193.536 16.1642H198.283C198.342 16.164 198.4 16.1756 198.455 16.1983C198.509 16.2211 198.559 16.2546 198.601 16.2968C198.643 16.3391 198.676 16.3893 198.699 16.4446C198.721 16.5 198.733 16.5593 198.733 16.6192C198.733 16.6791 198.721 16.7385 198.699 16.7939C198.676 16.8492 198.643 16.8995 198.602 16.9419C198.56 16.9843 198.51 17.0179 198.456 17.0407C198.401 17.0636 198.343 17.0754 198.284 17.0753H193.536L195.461 19.0307C195.503 19.073 195.536 19.1232 195.558 19.1785C195.581 19.2338 195.592 19.293 195.592 19.3528C195.592 19.4126 195.581 19.4719 195.558 19.5271C195.536 19.5824 195.503 19.6326 195.461 19.6749C195.419 19.7172 195.37 19.7508 195.315 19.7737C195.261 19.7966 195.203 19.8084 195.144 19.8084C195.085 19.8084 195.027 19.7966 194.972 19.7737C194.918 19.7508 194.868 19.7172 194.827 19.6749L192.136 16.9419C192.052 16.8564 192.005 16.7406 192.005 16.6198C192.005 16.4989 192.052 16.3831 192.136 16.2976L194.827 13.5646C194.911 13.4792 195.025 13.4312 195.144 13.4312C195.263 13.4311 195.377 13.4792 195.461 13.5646Z" fill="#E6E6E6"/>
<path d="M85.8259 193.555C83.2281 193.555 80.6885 192.772 78.5285 191.306C76.3685 189.84 74.6849 187.756 73.6908 185.318C72.6966 182.88 72.4365 180.197 72.9433 177.609C73.4501 175.021 74.7011 172.644 76.5381 170.778C78.375 168.912 80.7155 167.641 83.2634 167.126C85.8113 166.611 88.4524 166.875 90.8525 167.885C93.2526 168.895 95.304 170.605 96.7473 172.8C98.1905 174.994 98.9609 177.573 98.9609 180.212C98.9609 183.751 97.577 187.145 95.1137 189.647C92.6505 192.149 89.3095 193.555 85.8259 193.555Z" fill="#537FE7"/>
<path d="M91.0088 178.896H87.1218V174.948C87.1218 174.598 86.9853 174.264 86.7423 174.017C86.4993 173.77 86.1697 173.631 85.8261 173.631C85.4825 173.631 85.1529 173.77 84.9099 174.017C84.6669 174.264 84.5304 174.598 84.5304 174.948V178.896H80.6433C80.2997 178.896 79.9701 179.035 79.7271 179.282C79.4842 179.528 79.3477 179.863 79.3477 180.212C79.3477 180.561 79.4842 180.896 79.7271 181.143C79.9701 181.39 80.2997 181.528 80.6433 181.528H84.5304V185.477C84.5304 185.826 84.6669 186.161 84.9099 186.408C85.1529 186.654 85.4825 186.793 85.8261 186.793C86.1697 186.793 86.4993 186.654 86.7423 186.408C86.9853 186.161 87.1218 185.826 87.1218 185.477V181.528H91.0088C91.3525 181.528 91.682 181.39 91.925 181.143C92.168 180.896 92.3045 180.561 92.3045 180.212C92.3045 179.863 92.168 179.528 91.925 179.282C91.682 179.035 91.3525 178.896 91.0088 178.896Z" fill="white"/>
<path d="M149.426 37.9102H109.951V65.1619H149.426V37.9102Z" fill="#82AAE3"/>
<path d="M203.081 37.9102H163.606V65.1619H203.081V37.9102Z" fill="#82AAE3"/>
<path d="M256.736 37.9102H217.261V65.1619H256.736V37.9102Z" fill="#82AAE3"/>
<path d="M310.391 37.9102H270.917V65.1619H310.391V37.9102Z" fill="#82AAE3"/>
<path d="M364.047 37.9102H324.572V65.1619H364.047V37.9102Z" fill="#82AAE3"/>
<path d="M149.571 85.7954H110.096V113.047H149.571V85.7954Z" fill="#82AAE3"/>
<path d="M203.226 85.7954H163.751V113.047H203.226V85.7954Z" fill="#82AAE3"/>
<path d="M256.881 85.7954H217.406V113.047H256.881V85.7954Z" fill="#82AAE3"/>
<path d="M310.536 85.7954H271.062V113.047H310.536V85.7954Z" fill="#82AAE3"/>
<path d="M364.192 85.7954H324.717V113.047H364.192V85.7954Z" fill="#82AAE3"/>
<path d="M149.715 133.681H110.24V160.932H149.715V133.681Z" fill="#82AAE3"/>
<path d="M203.37 133.681H163.896V160.932H203.37V133.681Z" fill="#82AAE3"/>
<path d="M257.026 133.681H217.551V160.932H257.026V133.681Z" fill="#82AAE3"/>
<path d="M310.681 133.681H271.206V160.932H310.681V133.681Z" fill="#82AAE3"/>
<path d="M364.336 133.681H324.861V160.932H364.336V133.681Z" fill="#82AAE3"/>
<path d="M225.454 51.5361C228.206 51.5361 230.437 49.2702 230.437 46.4751C230.437 43.68 228.206 41.4141 225.454 41.4141C222.703 41.4141 220.472 43.68 220.472 46.4751C220.472 49.2702 222.703 51.5361 225.454 51.5361Z" fill="white"/>
<path d="M171.033 99.4214C173.784 99.4214 176.015 97.1555 176.015 94.3604C176.015 91.5652 173.784 89.2993 171.033 89.2993C168.281 89.2993 166.05 91.5652 166.05 94.3604C166.05 97.1555 168.281 99.4214 171.033 99.4214Z" fill="white"/>
<path d="M225.454 147.307C228.206 147.307 230.437 145.041 230.437 142.246C230.437 139.45 228.206 137.185 225.454 137.185C222.703 137.185 220.472 139.45 220.472 142.246C220.472 145.041 222.703 147.307 225.454 147.307Z" fill="white"/>
<path d="M280.26 99.4214C283.011 99.4214 285.242 97.1555 285.242 94.3604C285.242 91.5652 283.011 89.2993 280.26 89.2993C277.508 89.2993 275.277 91.5652 275.277 94.3604C275.277 97.1555 277.508 99.4214 280.26 99.4214Z" fill="#3F3D56"/>
<path d="M333.532 99.4214C336.283 99.4214 338.514 97.1555 338.514 94.3604C338.514 91.5652 336.283 89.2993 333.532 89.2993C330.78 89.2993 328.549 91.5652 328.549 94.3604C328.549 97.1555 330.78 99.4214 333.532 99.4214Z" fill="#3F3D56"/>
<path d="M171.033 147.307C173.784 147.307 176.015 145.041 176.015 142.246C176.015 139.45 173.784 137.185 171.033 137.185C168.281 137.185 166.05 139.45 166.05 142.246C166.05 145.041 168.281 147.307 171.033 147.307Z" fill="#3F3D56"/>
<path d="M40.4013 190.584C45.512 190.584 49.6551 186.376 49.6551 181.184C49.6551 175.993 45.512 171.784 40.4013 171.784C35.2905 171.784 31.1475 175.993 31.1475 181.184C31.1475 186.376 35.2905 190.584 40.4013 190.584Z" fill="#FFB8B8"/>
<path d="M37.0601 236.807C36.9435 236.807 36.8265 236.802 36.7089 236.791C36.1269 236.742 35.5617 236.568 35.0504 236.281C34.5391 235.995 34.0932 235.602 33.742 235.128C33.3907 234.654 33.142 234.11 33.0121 233.531C32.8822 232.953 32.8741 232.353 32.9883 231.771C33.0153 231.636 33.0493 231.503 33.09 231.371L19.4322 214.962C18.9872 214.424 18.725 213.753 18.6847 213.051C18.6443 212.349 18.8279 211.652 19.2082 211.065L19.233 211.034L31.5267 198.72C32.198 198.049 33.1042 197.676 34.0463 197.683C34.9883 197.69 35.889 198.077 36.5504 198.758C37.2119 199.439 37.5799 200.36 37.5735 201.317C37.5672 202.274 37.1871 203.189 36.5168 203.861C36.5014 203.877 36.4858 203.892 36.4701 203.907L27.5662 212.506L37.3138 228.398C37.4984 228.408 37.6821 228.431 37.8636 228.467C38.8719 228.671 39.7694 229.249 40.3819 230.088C40.9944 230.926 41.2781 231.967 41.178 233.006C41.0778 234.046 40.601 235.01 39.84 235.713C39.079 236.415 38.0883 236.805 37.0601 236.807Z" fill="#FFB8B8"/>
<path d="M55.6419 312.01H60.2613L62.4586 293.912L55.6411 293.913L55.6419 312.01Z" fill="#FFB8B8"/>
<path d="M54.4639 310.479L63.5605 310.479C64.3217 310.478 65.0759 310.631 65.7793 310.927C66.4826 311.223 67.1217 311.656 67.66 312.203C68.1983 312.75 68.6253 313.399 68.9167 314.114C69.208 314.828 69.358 315.594 69.358 316.367V316.559L54.4641 316.559L54.4639 310.479Z" fill="#2F2E41"/>
<path d="M9.73096 305.523L13.6998 307.924L24.7033 293.515L18.8455 289.973L9.73096 305.523Z" fill="#FFB8B8"/>
<path d="M9.48984 303.595L17.306 308.322C18.627 309.121 19.5818 310.421 19.9597 311.934C20.3376 313.448 20.108 315.053 19.3215 316.394L19.225 316.559L6.42773 308.819L9.48984 303.595Z" fill="#2F2E41"/>
<path d="M61.3511 305.618H56.1787C55.7599 305.619 55.3557 305.462 55.0443 305.177C54.7329 304.893 54.5364 304.501 54.4928 304.078L49.2783 254.287C49.2651 254.162 49.2117 254.044 49.1263 253.953C49.041 253.861 48.9283 253.801 48.8058 253.781C48.6833 253.761 48.5577 253.782 48.4484 253.842C48.3392 253.902 48.2523 253.996 48.2011 254.111L38.7941 275.271L22.1394 302.857C21.9238 303.211 21.5901 303.474 21.1992 303.598C20.8084 303.722 20.3867 303.699 20.0112 303.533L13.3578 300.56C13.1378 300.461 12.9409 300.316 12.7802 300.135C12.6194 299.953 12.4985 299.739 12.4255 299.507C12.3524 299.274 12.3288 299.028 12.3564 298.786C12.3839 298.543 12.4619 298.309 12.5851 298.1L27.8954 272.059L32.5909 250.118C31.1141 240.603 37.4451 226.456 37.5093 226.314L37.5407 226.245L54.9797 219.321L55.0672 219.43C61.9446 242.356 66.1354 267.029 63.0411 304.04C63.0029 304.47 62.8087 304.869 62.4962 305.161C62.1837 305.453 61.7755 305.616 61.3511 305.618Z" fill="#2F2E41"/>
<path d="M36.8382 228.563L36.757 228.39C36.7182 228.307 32.8405 219.999 29.8513 211.12C29.2768 209.403 29.0596 207.583 29.2135 205.777C29.3674 203.97 29.889 202.215 30.7453 200.624C31.6127 199.016 32.7994 197.609 34.2301 196.491C35.6609 195.373 37.3045 194.57 39.057 194.131C42.0993 193.391 45.3023 193.785 48.0825 195.242C50.8628 196.699 53.0351 199.122 54.2038 202.07C56.5749 208.093 55.8192 214.522 55.1081 219.578L55.0939 219.679L55.0032 219.723L36.8382 228.563Z" fill="#537FE7"/>
<path d="M51.6212 175.875H36.9272V169.368C40.1524 168.067 43.3084 166.96 45.2162 169.368C46.9149 169.368 48.544 170.054 49.7452 171.274C50.9464 172.494 51.6212 174.149 51.6212 175.875Z" fill="#2F2E41"/>
<path d="M36.1137 168.22C27.3294 168.22 24.8706 179.405 24.8706 185.715C24.8706 189.234 26.4373 190.493 28.8992 190.919L29.7686 186.208L31.8049 191.121C32.4965 191.125 33.223 191.111 33.9761 191.097L34.6666 189.653L36.2062 191.071C42.3727 191.08 47.3566 191.993 47.3566 185.715C47.3566 179.405 45.2003 168.22 36.1137 168.22Z" fill="#2F2E41"/>
<path d="M75.1593 180.738C75.2151 180.842 75.2667 180.949 75.3141 181.059C75.5505 181.601 75.6714 182.188 75.6688 182.782C75.6663 183.375 75.5404 183.961 75.2993 184.501C75.0583 185.042 74.7076 185.524 74.2702 185.917C73.8327 186.31 73.3185 186.605 72.7611 186.782C72.6314 186.823 72.4997 186.857 72.3665 186.883L64.739 206.926C64.4868 207.581 64.0334 208.136 63.4462 208.508C62.8589 208.881 62.169 209.051 61.4789 208.994L61.4406 208.987L44.9085 203.931C44.006 203.655 43.2484 203.026 42.8024 202.183C42.3565 201.339 42.2586 200.351 42.5303 199.434C42.8021 198.517 43.4212 197.748 44.2515 197.294C45.0818 196.841 46.0553 196.742 46.9578 197.018C46.9784 197.024 46.999 197.031 47.0195 197.038L58.7168 200.852L67.7729 184.544C67.6928 184.374 67.6246 184.2 67.5687 184.021C67.2619 183.024 67.3308 181.947 67.7619 180.999C68.1929 180.05 68.9555 179.299 69.9015 178.89C70.8475 178.481 71.9094 178.443 72.881 178.785C73.8526 179.126 74.6646 179.823 75.1593 180.738Z" fill="#FFB8B8"/>
<path d="M77.0763 317H0.399359C0.293443 317 0.191864 316.957 0.116969 316.881C0.0420749 316.805 0 316.702 0 316.594C0 316.487 0.0420749 316.383 0.116969 316.307C0.191864 316.231 0.293443 316.188 0.399359 316.188H77.0763C77.1823 316.188 77.2838 316.231 77.3587 316.307C77.4336 316.383 77.4757 316.487 77.4757 316.594C77.4757 316.702 77.4336 316.805 77.3587 316.881C77.2838 316.957 77.1823 317 77.0763 317Z" fill="#CCCCCC"/>
</g>
<defs>
<clipPath id="clip0_320_801">
<rect width="388" height="317" fill="white"/>
</clipPath>
</defs>
</svg>
