<svg width="28" height="28" viewBox="0 0 28 28" fill="none" xmlns="http://www.w3.org/2000/svg">
<path d="M14 2.8C11.0296 2.8 8.18081 3.98 6.0804 6.0804C3.98 8.18081 2.8 11.0296 2.8 14C2.8 16.9704 3.98 19.8192 6.0804 21.9196C8.18081 24.02 11.0296 25.2 14 25.2C16.9704 25.2 19.8192 24.02 21.9196 21.9196C24.02 19.8192 25.2 16.9704 25.2 14C25.2 11.0296 24.02 8.18081 21.9196 6.0804C19.8192 3.98 16.9704 2.8 14 2.8ZM0 14C0 6.2678 6.2678 0 14 0C21.7322 0 28 6.2678 28 14C28 21.7322 21.7322 28 14 28C6.2678 28 0 21.7322 0 14ZM14 5.6C14.3713 5.6 14.7274 5.7475 14.9899 6.01005C15.2525 6.2726 15.4 6.6287 15.4 7V13.4204L19.1898 17.2102C19.4448 17.4742 19.5859 17.8279 19.5827 18.195C19.5796 18.562 19.4323 18.9132 19.1727 19.1727C18.9132 19.4323 18.562 19.5796 18.195 19.5827C17.8279 19.5859 17.4742 19.4448 17.2102 19.1898L13.0102 14.9898C12.7476 14.7273 12.6001 14.3713 12.6 14V7C12.6 6.6287 12.7475 6.2726 13.0101 6.01005C13.2726 5.7475 13.6287 5.6 14 5.6Z" fill="#0D0D0D"/>
</svg>
