<svg width="24" height="18" viewBox="0 0 24 18" fill="none" xmlns="http://www.w3.org/2000/svg">
<path d="M0 1.5C0 1.10218 0.158036 0.720645 0.43934 0.43934C0.720645 0.158036 1.10218 0 1.5 0H22.5C22.8978 0 23.2794 0.158036 23.5607 0.43934C23.842 0.720645 24 1.10218 24 1.5C24 1.89782 23.842 2.27936 23.5607 2.56066C23.2794 2.84196 22.8978 3 22.5 3H1.5C1.10218 3 0.720645 2.84196 0.43934 2.56066C0.158036 2.27936 0 1.89782 0 1.5ZM0 9C0 8.60218 0.158036 8.22064 0.43934 7.93934C0.720645 7.65804 1.10218 7.5 1.5 7.5H22.5C22.8978 7.5 23.2794 7.65804 23.5607 7.93934C23.842 8.22064 24 8.60218 24 9C24 9.39782 23.842 9.77936 23.5607 10.0607C23.2794 10.342 22.8978 10.5 22.5 10.5H1.5C1.10218 10.5 0.720645 10.342 0.43934 10.0607C0.158036 9.77936 0 9.39782 0 9ZM0 16.5C0 16.1022 0.158036 15.7206 0.43934 15.4393C0.720645 15.158 1.10218 15 1.5 15H22.5C22.8978 15 23.2794 15.158 23.5607 15.4393C23.842 15.7206 24 16.1022 24 16.5C24 16.8978 23.842 17.2794 23.5607 17.5607C23.2794 17.842 22.8978 18 22.5 18H1.5C1.10218 18 0.720645 17.842 0.43934 17.5607C0.158036 17.2794 0 16.8978 0 16.5Z" fill="#0D0D0D"/>
</svg>
