<svg width="21" height="28" viewBox="0 0 21 28" fill="none" xmlns="http://www.w3.org/2000/svg">
<path d="M10.5 0C10.9641 0 11.4092 0.184375 11.7374 0.512563C12.0656 0.840752 12.25 1.28587 12.25 1.75V26.25C12.25 26.7141 12.0656 27.1592 11.7374 27.4874C11.4092 27.8156 10.9641 28 10.5 28C10.0359 28 9.59075 27.8156 9.26256 27.4874C8.93437 27.1592 8.75 26.7141 8.75 26.25V1.75C8.75 1.28587 8.93437 0.840752 9.26256 0.512563C9.59075 0.184375 10.0359 0 10.5 0ZM19.25 7C19.7141 7 20.1592 7.18437 20.4874 7.51256C20.8156 7.84075 21 8.28587 21 8.75V26.25C21 26.7141 20.8156 27.1592 20.4874 27.4874C20.1592 27.8156 19.7141 28 19.25 28C18.7859 28 18.3408 27.8156 18.0126 27.4874C17.6844 27.1592 17.5 26.7141 17.5 26.25V8.75C17.5 8.28587 17.6844 7.84075 18.0126 7.51256C18.3408 7.18437 18.7859 7 19.25 7ZM1.75 14C2.21413 14 2.65925 14.1844 2.98744 14.5126C3.31563 14.8408 3.5 15.2859 3.5 15.75V26.25C3.5 26.7141 3.31563 27.1592 2.98744 27.4874C2.65925 27.8156 2.21413 28 1.75 28C1.28587 28 0.840752 27.8156 0.512563 27.4874C0.184375 27.1592 0 26.7141 0 26.25V15.75C0 15.2859 0.184375 14.8408 0.512563 14.5126C0.840752 14.1844 1.28587 14 1.75 14Z" fill="#0D0D0D"/>
</svg>
