<svg width="20" height="17" viewBox="0 0 20 17" fill="none" xmlns="http://www.w3.org/2000/svg">
<path d="M9.3666 0.355844C9.59445 0.58376 9.72245 0.892838 9.72245 1.21511C9.72245 1.53738 9.59445 1.84646 9.3666 2.07438L4.14902 7.29197H18.2303C18.5526 7.29197 18.8618 7.42001 19.0897 7.64794C19.3176 7.87587 19.4457 8.185 19.4457 8.50734C19.4457 8.82967 19.3176 9.13881 19.0897 9.36673C18.8618 9.59466 18.5526 9.72271 18.2303 9.72271H4.14902L9.3666 14.9403C9.58799 15.1695 9.7105 15.4765 9.70773 15.7952C9.70496 16.1139 9.57714 16.4187 9.3518 16.644C9.12646 16.8694 8.82163 16.9972 8.50296 17C8.1843 17.0027 7.87729 16.8802 7.64807 16.6588L0.355844 9.3666C0.127997 9.13869 0 8.82961 0 8.50734C0 8.18506 0.127997 7.87599 0.355844 7.64807L7.64807 0.355844C7.87599 0.127997 8.18506 0 8.50734 0C8.82961 0 9.13869 0.127997 9.3666 0.355844Z" fill="#0D0D0D"/>
</svg>
