<svg width="22" height="22" viewBox="0 0 22 22" fill="none" xmlns="http://www.w3.org/2000/svg">
<path d="M2.2291 2.07238H6.87843L8.37678 5.82133L5.96928 7.42743C5.8275 7.52208 5.71127 7.65029 5.63089 7.80068C5.55051 7.95107 5.50846 8.11899 5.50849 8.28954C5.51159 8.38694 5.50849 8.29057 5.50849 8.29057V8.31233C5.50903 8.35867 5.5111 8.40498 5.5147 8.45118C5.52091 8.53615 5.53127 8.65117 5.55094 8.79313C5.59133 9.0729 5.66899 9.45836 5.82017 9.91222C6.1246 10.8241 6.72104 12.0043 7.88286 13.1669C9.04467 14.3295 10.2241 14.9263 11.1343 15.231C11.5889 15.3823 11.973 15.459 12.2547 15.5004C12.4137 15.5226 12.5737 15.5364 12.7341 15.5418L12.7476 15.5429H12.7559C12.7559 15.5429 12.8718 15.5367 12.7569 15.5429C12.9491 15.5428 13.1376 15.4891 13.3011 15.3879C13.4646 15.2867 13.5967 15.142 13.6826 14.9699L14.3764 13.5814L18.9698 14.3482V18.8245C16.7839 19.1405 10.8796 19.4524 6.24058 14.8103C1.6016 10.1682 1.91225 4.25875 2.2291 2.07238ZM7.65505 8.79313L9.52617 7.54555C9.92146 7.28171 10.2141 6.88987 10.3549 6.43575C10.4957 5.98164 10.4762 5.49287 10.2997 5.05144L8.80133 1.30249C8.64757 0.917968 8.38221 0.588365 8.03946 0.356203C7.69672 0.124042 7.29232 -2.77632e-05 6.87843 4.65999e-09H2.17526C1.234 4.65999e-09 0.348663 0.653837 0.194375 1.67552C-0.15769 3.99867 -0.635048 10.8603 4.7764 16.2755C10.1878 21.6906 17.0448 21.2119 19.3664 20.8606C20.3874 20.7052 21.0408 19.8203 21.0408 18.8784V14.3482C21.0408 13.8576 20.867 13.3829 20.5501 13.0085C20.2333 12.6342 19.794 12.3844 19.3105 12.3037L14.7171 11.538C14.2802 11.465 13.8314 11.5341 13.4367 11.7352C13.042 11.9362 12.722 12.2586 12.5239 12.655L12.1656 13.3731C12.0389 13.3419 11.9135 13.3056 11.7897 13.2643C11.1477 13.0508 10.2562 12.6115 9.34703 11.7017C8.43788 10.7919 7.99883 9.89978 7.78552 9.25631C7.7346 9.1042 7.6914 8.94961 7.65609 8.79313H7.65505Z" fill="#0D0D0D"/>
</svg>
