<svg width="18" height="11" viewBox="0 0 18 11" fill="none" xmlns="http://www.w3.org/2000/svg">
<path d="M0.376115 0.392176C0.617015 0.151349 0.9437 0.0160605 1.28433 0.0160605C1.62496 0.0160605 1.95165 0.151349 2.19255 0.392176L8.99197 7.1916L15.7914 0.392176C15.9099 0.269483 16.0516 0.171618 16.2084 0.104293C16.3651 0.0369682 16.5337 0.0015307 16.7042 4.85012e-05C16.8748 -0.0014337 17.044 0.03107 17.2018 0.0956611C17.3597 0.160252 17.5031 0.255638 17.6237 0.376253C17.7444 0.496869 17.8397 0.640297 17.9043 0.79817C17.9689 0.956044 18.0014 1.1252 18 1.29577C17.9985 1.46634 17.963 1.6349 17.8957 1.79163C17.8284 1.94836 17.7305 2.09011 17.6078 2.20861L9.90019 9.91625C9.65929 10.1571 9.3326 10.2924 8.99197 10.2924C8.65134 10.2924 8.32465 10.1571 8.08375 9.91625L0.376115 2.20861C0.135289 1.96771 0 1.64102 0 1.30039C0 0.959761 0.135289 0.633075 0.376115 0.392176Z" fill="#0D0D0D" fill-opacity="0.35"/>
</svg>
