<svg width="22" height="22" viewBox="0 0 22 22" fill="none" xmlns="http://www.w3.org/2000/svg">
<path d="M8.80541 2.20009C7.0539 2.20009 5.37414 2.89588 4.13564 4.13438C2.89714 5.37288 2.20135 7.05265 2.20135 8.80415C2.20135 10.5557 2.89714 12.2354 4.13564 13.4739C5.37414 14.7124 7.0539 15.4082 8.80541 15.4082C10.5569 15.4082 12.2367 14.7124 13.4752 13.4739C14.7137 12.2354 15.4095 10.5557 15.4095 8.80415C15.4095 7.05265 14.7137 5.37288 13.4752 4.13438C12.2367 2.89588 10.5569 2.20009 8.80541 2.20009ZM5.43913e-08 8.80415C0.000200682 7.40284 0.334846 6.0218 0.976123 4.77583C1.6174 3.52986 2.54679 2.45493 3.68705 1.64038C4.82731 0.825834 6.14551 0.29519 7.5321 0.0925517C8.91868 -0.110086 10.3336 0.0211339 11.6593 0.475307C12.985 0.92948 14.1831 1.69349 15.1541 2.70384C16.1251 3.71419 16.841 4.94169 17.2422 6.28435C17.6434 7.627 17.7184 9.04602 17.4609 10.4235C17.2034 11.8009 16.6208 13.097 15.7617 14.2041L21.691 20.1334C21.8915 20.341 22.0025 20.619 22 20.9076C21.9974 21.1962 21.8817 21.4723 21.6776 21.6764C21.4735 21.8804 21.1975 21.9962 20.9089 21.9987C20.6203 22.0012 20.3423 21.8903 20.1347 21.6898L14.2053 15.7604C12.9037 16.771 11.3447 17.396 9.7055 17.5644C8.06631 17.7329 6.41275 17.438 4.93284 16.7133C3.45294 15.9886 2.20608 14.8631 1.33405 13.465C0.462019 12.0668 -0.000183065 10.452 5.43913e-08 8.80415Z" fill="#0D0D0D"/>
</svg>
