<svg width="23" height="28" viewBox="0 0 23 28" fill="none" xmlns="http://www.w3.org/2000/svg">
<path d="M0 2.8C0 2.05739 0.294999 1.3452 0.820101 0.820101C1.3452 0.294999 2.05739 0 2.8 0H14C14.3713 7.92924e-05 14.7273 0.147631 14.9898 0.4102L21.9898 7.4102C22.2524 7.67269 22.3999 8.02873 22.4 8.4V25.2C22.4 25.9426 22.105 26.6548 21.5799 27.1799C21.0548 27.705 20.3426 28 19.6 28H2.8C2.05739 28 1.3452 27.705 0.820101 27.1799C0.294999 26.6548 0 25.9426 0 25.2V2.8ZM19.0204 8.4L14 3.3796V8.4H19.0204ZM11.2 2.8H2.8V25.2H19.6V11.2H12.6C12.2287 11.2 11.8726 11.0525 11.61 10.7899C11.3475 10.5274 11.2 10.1713 11.2 9.8V2.8ZM5.6 15.4C5.6 15.0287 5.7475 14.6726 6.01005 14.4101C6.2726 14.1475 6.6287 14 7 14H15.4C15.7713 14 16.1274 14.1475 16.3899 14.4101C16.6525 14.6726 16.8 15.0287 16.8 15.4C16.8 15.7713 16.6525 16.1274 16.3899 16.3899C16.1274 16.6525 15.7713 16.8 15.4 16.8H7C6.6287 16.8 6.2726 16.6525 6.01005 16.3899C5.7475 16.1274 5.6 15.7713 5.6 15.4ZM5.6 21C5.6 20.6287 5.7475 20.2726 6.01005 20.01C6.2726 19.7475 6.6287 19.6 7 19.6H15.4C15.7713 19.6 16.1274 19.7475 16.3899 20.01C16.6525 20.2726 16.8 20.6287 16.8 21C16.8 21.3713 16.6525 21.7274 16.3899 21.99C16.1274 22.2525 15.7713 22.4 15.4 22.4H7C6.6287 22.4 6.2726 22.2525 6.01005 21.99C5.7475 21.7274 5.6 21.3713 5.6 21Z" fill="#0D0D0D"/>
</svg>
