<svg width="18" height="18" viewBox="0 0 18 18" fill="none" xmlns="http://www.w3.org/2000/svg">
<path d="M5.68421 0C5.93547 0 6.17643 0.0998117 6.3541 0.277478C6.53177 0.455144 6.63158 0.696111 6.63158 0.947368V1.89474H10.4211V0.947368C10.4211 0.696111 10.5209 0.455144 10.6985 0.277478C10.8762 0.0998117 11.1172 0 11.3684 0C11.6197 0 11.8606 0.0998117 12.0383 0.277478C12.216 0.455144 12.3158 0.696111 12.3158 0.947368V1.89474H15.1579C15.6604 1.89474 16.1423 2.09436 16.4977 2.44969C16.853 2.80502 17.0526 3.28696 17.0526 3.78947V16.1053C17.0526 16.6078 16.853 17.0897 16.4977 17.445C16.1423 17.8004 15.6604 18 15.1579 18H1.89474C1.39222 18 0.910287 17.8004 0.554955 17.445C0.199623 17.0897 0 16.6078 0 16.1053V3.78947C0 3.28696 0.199623 2.80502 0.554955 2.44969C0.910287 2.09436 1.39222 1.89474 1.89474 1.89474H4.73684V0.947368C4.73684 0.696111 4.83665 0.455144 5.01432 0.277478C5.19199 0.0998117 5.43295 0 5.68421 0ZM4.73684 3.78947H1.89474V6.63158H15.1579V3.78947H12.3158V4.73684C12.3158 4.9881 12.216 5.22907 12.0383 5.40673C11.8606 5.5844 11.6197 5.68421 11.3684 5.68421C11.1172 5.68421 10.8762 5.5844 10.6985 5.40673C10.5209 5.22907 10.4211 4.9881 10.4211 4.73684V3.78947H6.63158V4.73684C6.63158 4.9881 6.53177 5.22907 6.3541 5.40673C6.17643 5.5844 5.93547 5.68421 5.68421 5.68421C5.43295 5.68421 5.19199 5.5844 5.01432 5.40673C4.83665 5.22907 4.73684 4.9881 4.73684 4.73684V3.78947ZM15.1579 8.52632H1.89474V16.1053H15.1579V8.52632Z" fill="#0D0D0D" fill-opacity="0.85"/>
</svg>
