<svg width="19" height="22" viewBox="0 0 19 22" fill="none" xmlns="http://www.w3.org/2000/svg">
<path d="M9.5 2.11111C8.3802 2.11111 7.30626 2.55595 6.51444 3.34777C5.72262 4.13959 5.27778 5.21353 5.27778 6.33333C5.27778 7.45314 5.72262 8.52708 6.51444 9.3189C7.30626 10.1107 8.3802 10.5556 9.5 10.5556C10.6198 10.5556 11.6937 10.1107 12.4856 9.3189C13.2774 8.52708 13.7222 7.45314 13.7222 6.33333C13.7222 5.21353 13.2774 4.13959 12.4856 3.34777C11.6937 2.55595 10.6198 2.11111 9.5 2.11111ZM3.16667 6.33333C3.16667 4.65363 3.83393 3.04272 5.02166 1.85499C6.20939 0.66726 7.8203 0 9.5 0C11.1797 0 12.7906 0.66726 13.9783 1.85499C15.1661 3.04272 15.8333 4.65363 15.8333 6.33333C15.8333 8.01304 15.1661 9.62395 13.9783 10.8117C12.7906 11.9994 11.1797 12.6667 9.5 12.6667C7.8203 12.6667 6.20939 11.9994 5.02166 10.8117C3.83393 9.62395 3.16667 8.01304 3.16667 6.33333ZM5.27778 16.8889C4.43793 16.8889 3.63247 17.2225 3.03861 17.8164C2.44474 18.4102 2.11111 19.2157 2.11111 20.0556C2.11111 20.3355 1.9999 20.604 1.80195 20.8019C1.60399 20.9999 1.33551 21.1111 1.05556 21.1111C0.775605 21.1111 0.50712 20.9999 0.309165 20.8019C0.11121 20.604 0 20.3355 0 20.0556C0 18.6558 0.55605 17.3134 1.54583 16.3236C2.5356 15.3338 3.87802 14.7778 5.27778 14.7778H13.7222C15.122 14.7778 16.4644 15.3338 17.4542 16.3236C18.444 17.3134 19 18.6558 19 20.0556C19 20.3355 18.8888 20.604 18.6908 20.8019C18.4929 20.9999 18.2244 21.1111 17.9444 21.1111C17.6645 21.1111 17.396 20.9999 17.1981 20.8019C17.0001 20.604 16.8889 20.3355 16.8889 20.0556C16.8889 19.2157 16.5553 18.4102 15.9614 17.8164C15.3675 17.2225 14.5621 16.8889 13.7222 16.8889H5.27778Z" fill="#0D0D0D"/>
</svg>
