<svg width="30" height="28" viewBox="0 0 30 28" fill="none" xmlns="http://www.w3.org/2000/svg">
<path d="M13.7224 0.371777C13.9921 0.132277 14.3403 0 14.701 0C15.0617 0 15.4098 0.132277 15.6795 0.371777L28.9432 12.1617C29.2205 12.4251 29.3845 12.7859 29.4006 13.168C29.4167 13.5501 29.2837 13.9235 29.0297 14.2093C28.7756 14.4951 28.4204 14.671 28.0391 14.6998C27.6577 14.7285 27.2801 14.6079 26.9861 14.3635L26.4909 13.9258V25.0525C26.4909 25.8342 26.1804 26.5839 25.6276 27.1367C25.0748 27.6895 24.3251 28 23.5434 28H5.85852C5.0768 28 4.32709 27.6895 3.77433 27.1367C3.22157 26.5839 2.91103 25.8342 2.91103 25.0525V13.9258L2.41586 14.3635C2.12179 14.6079 1.7442 14.7285 1.36287 14.6998C0.981536 14.671 0.626318 14.4951 0.372255 14.2093C0.118191 13.9235 -0.0148222 13.5501 0.00131376 13.168C0.0174498 12.7859 0.181471 12.4251 0.458729 12.1617L13.7224 0.371777ZM5.85852 11.3025V25.0525H10.2797V17.6838C10.2797 17.293 10.435 16.9181 10.7114 16.6417C10.9878 16.3653 11.3626 16.2101 11.7535 16.2101H17.6484C18.0393 16.2101 18.4142 16.3653 18.6905 16.6417C18.9669 16.9181 19.1222 17.293 19.1222 17.6838V25.0525H23.5434V11.304L14.701 3.44453L5.85852 11.3025ZM16.1747 25.0525V19.1576H13.2272V25.0525H16.1747Z" fill="#0D0D0D"/>
</svg>
