<svg width="16" height="20" viewBox="0 0 16 20" fill="none" xmlns="http://www.w3.org/2000/svg">
<path d="M2 20C1.46957 20 0.960859 19.7893 0.585786 19.4142C0.210714 19.0391 0 18.5304 0 18L0 9C0 8.46957 0.210714 7.96086 0.585786 7.58579C0.960859 7.21071 1.46957 7 2 7H4C4.26522 7 4.51957 7.10536 4.70711 7.29289C4.89464 7.48043 5 7.73478 5 8C5 8.26522 4.89464 8.51957 4.70711 8.70711C4.51957 8.89464 4.26522 9 4 9H2L2 18H14V9L12 9C11.7348 9 11.4804 8.89464 11.2929 8.70711C11.1054 8.51957 11 8.26522 11 8C11 7.73478 11.1054 7.48043 11.2929 7.29289C11.4804 7.10536 11.7348 7 12 7L14 7C14.5304 7 15.0391 7.21071 15.4142 7.58579C15.7893 7.96086 16 8.46957 16 9V18C16 18.5304 15.7893 19.0391 15.4142 19.4142C15.0391 19.7893 14.5304 20 14 20H2ZM4.293 4.707C4.10553 4.51947 4.00021 4.26516 4.00021 4C4.00021 3.73484 4.10553 3.48053 4.293 3.293L7.293 0.292999C7.48053 0.105528 7.73484 0.000213623 8 0.000213623C8.26516 0.000213623 8.51947 0.105528 8.707 0.292999L11.707 3.293C11.8892 3.4816 11.99 3.7342 11.9877 3.9964C11.9854 4.2586 11.8802 4.50941 11.6948 4.69482C11.5094 4.88023 11.2586 4.9854 10.9964 4.98767C10.7342 4.98995 10.4816 4.88916 10.293 4.707L9 3.414L9 13C9 13.2652 8.89464 13.5196 8.70711 13.7071C8.51957 13.8946 8.26522 14 8 14C7.73478 14 7.48043 13.8946 7.29289 13.7071C7.10536 13.5196 7 13.2652 7 13V3.414L5.707 4.707C5.51947 4.89447 5.26516 4.99979 5 4.99979C4.73484 4.99979 4.48053 4.89447 4.293 4.707Z" fill="#0D0D0D"/>
</svg>
