<svg width="22" height="17" viewBox="0 0 22 17" fill="none" xmlns="http://www.w3.org/2000/svg">
<path d="M0 2.125C0 1.56141 0.223883 1.02091 0.622398 0.622398C1.02091 0.223883 1.56141 0 2.125 0H19.125C19.6886 0 20.2291 0.223883 20.6276 0.622398C21.0261 1.02091 21.25 1.56141 21.25 2.125V14.875C21.25 15.4386 21.0261 15.9791 20.6276 16.3776C20.2291 16.7761 19.6886 17 19.125 17H2.125C1.56141 17 1.02091 16.7761 0.622398 16.3776C0.223883 15.9791 0 15.4386 0 14.875V2.125ZM3.73894 2.125L10.625 8.15044L17.5111 2.125H3.73894ZM19.125 3.53706L11.3252 10.3626C11.1314 10.5323 10.8826 10.6259 10.625 10.6259C10.3674 10.6259 10.1186 10.5323 9.92481 10.3626L2.125 3.53706V14.875H19.125V3.53706Z" fill="#0D0D0D" fill-opacity="0.85"/>
</svg>
