<svg width="22" height="19" viewBox="0 0 22 19" fill="none" xmlns="http://www.w3.org/2000/svg">
<path d="M2.86073 0.296712C2.66138 0.104171 2.39438 -0.00236833 2.11724 3.99573e-05C1.8401 0.00244824 1.57499 0.113612 1.37901 0.309588C1.18303 0.505564 1.07187 0.770672 1.06946 1.04781C1.06705 1.32496 1.17359 1.59196 1.36614 1.79131L3.9283 4.35347C2.41679 5.4908 1.09766 7.05305 0.111477 9.02752C0.0381655 9.17423 0 9.33599 0 9.5C0 9.66401 0.0381655 9.82577 0.111477 9.97248C2.39248 14.5355 6.4429 16.899 10.5694 16.899C12.2131 16.899 13.8461 16.5238 15.3576 15.7839L18.2781 18.7033C18.4775 18.8958 18.7445 19.0024 19.0216 19C19.2988 18.9976 19.5639 18.8864 19.7598 18.6904C19.9558 18.4944 20.067 18.2293 20.0694 17.9522C20.0718 17.675 19.9653 17.408 19.7727 17.2087L2.86073 0.296712ZM13.7552 14.1804C12.7194 14.5852 11.6412 14.785 10.5694 14.785C7.43119 14.785 4.22532 13.0727 2.25084 9.5C3.11441 7.9367 4.21475 6.73066 5.44087 5.86709L7.70707 8.1333C7.42388 8.72517 7.33127 9.39031 7.44199 10.037C7.55272 10.6837 7.86133 11.2802 8.32528 11.7441C8.78923 12.2081 9.38568 12.5167 10.0324 12.6274C10.6791 12.7382 11.3443 12.6455 11.9361 12.3624L13.7542 14.1804H13.7552ZM17.4949 11.5041C18.0054 10.9164 18.4737 10.2494 18.888 9.5C16.9135 5.92734 13.7087 4.21501 10.5694 4.21501C10.451 4.21501 10.3327 4.21712 10.2143 4.22241L8.32753 2.33672C9.06456 2.18014 9.81595 2.10114 10.5694 2.10101C14.6949 2.10101 18.7464 4.46446 21.0274 9.02752C21.1007 9.17423 21.1388 9.33599 21.1388 9.5C21.1388 9.66401 21.1007 9.82577 21.0274 9.97248C20.4856 11.0672 19.8014 12.0855 18.9926 13.0008L17.4949 11.5041Z" fill="#0D0D0D" fill-opacity="0.35"/>
</svg>
