<svg width="22" height="15" viewBox="0 0 22 15" fill="none" xmlns="http://www.w3.org/2000/svg">
<path d="M13.7411 7.5C13.7411 8.35248 13.407 9.17005 12.8123 9.77284C12.2176 10.3756 11.411 10.7143 10.57 10.7143C9.72893 10.7143 8.92233 10.3756 8.32762 9.77284C7.73291 9.17005 7.3988 8.35248 7.3988 7.5C7.3988 6.64752 7.73291 5.82995 8.32762 5.22716C8.92233 4.62436 9.72893 4.28571 10.57 4.28571C11.411 4.28571 12.2176 4.62436 12.8123 5.22716C13.407 5.82995 13.7411 6.64752 13.7411 7.5Z" fill="#0D0D0D" fill-opacity="0.35"/>
<path d="M21.0285 7.02107C18.7474 2.39571 14.6967 0 10.57 0C6.44431 0 2.39261 2.39571 0.111483 7.02107C0.0381676 7.16979 0 7.33375 0 7.5C0 7.66625 0.0381676 7.83021 0.111483 7.97893C2.39261 12.6043 6.44325 15 10.57 15C14.6957 15 18.7474 12.6043 21.0285 7.97893C21.1018 7.83021 21.14 7.66625 21.14 7.5C21.14 7.33375 21.1018 7.16979 21.0285 7.02107ZM10.57 12.8571C7.4316 12.8571 4.22555 11.1214 2.25097 7.5C4.22555 3.87857 7.43054 2.14286 10.57 2.14286C13.7084 2.14286 16.9145 3.87857 18.889 7.5C16.9145 11.1214 13.7084 12.8571 10.57 12.8571Z" fill="#0D0D0D" fill-opacity="0.35"/>
</svg>
