<svg width="16" height="16" viewBox="0 0 16 16" fill="none" xmlns="http://www.w3.org/2000/svg">
<path d="M5.65207 0.261287C5.78447 0.39344 5.87182 0.563993 5.90167 0.748668C5.93151 0.933343 5.90234 1.12273 5.81831 1.28986C5.19255 2.53408 4.97494 3.9439 5.19642 5.31889C5.4179 6.69389 6.06719 7.96407 7.05199 8.94887C8.03679 9.93367 9.30697 10.583 10.682 10.8044C12.057 11.0259 13.4668 10.8083 14.711 10.1825C14.878 10.0984 15.0674 10.0691 15.2521 10.0987C15.4367 10.1284 15.6074 10.2156 15.7396 10.3479C15.8719 10.4801 15.9591 10.6507 15.9887 10.8354C16.0184 11.0201 15.9891 11.2094 15.9049 11.3765C15.3072 12.5637 14.4363 13.5922 13.3638 14.3775C12.2913 15.1627 11.0478 15.6822 9.73545 15.8933C8.42309 16.1044 7.07937 16.0012 5.81471 15.5919C4.55004 15.1827 3.40052 14.4793 2.46062 13.5394C1.52071 12.5994 0.817247 11.4499 0.40803 10.1853C-0.00118721 8.92059 -0.104476 7.57687 0.10665 6.26452C0.317777 4.95217 0.837293 3.70864 1.62251 2.63613C2.40772 1.56362 3.43622 0.692737 4.62349 0.095044C4.79073 0.0108013 4.9803 -0.018482 5.16516 0.0113705C5.35002 0.041223 5.52073 0.128687 5.65295 0.261287H5.65207ZM3.39667 3.26345C2.30259 4.52936 1.72819 6.16245 1.78891 7.83453C1.84962 9.50661 2.54095 11.0937 3.72395 12.277C4.90696 13.4602 6.49396 14.1518 8.16602 14.2129C9.83809 14.2739 11.4713 13.6998 12.7374 12.606C11.4741 12.7576 10.1928 12.6203 8.99024 12.2045C7.78771 11.7886 6.69535 11.105 5.79562 10.2052C4.89588 9.30551 4.21228 8.21315 3.7964 7.01062C3.38052 5.80808 3.24323 4.52679 3.39489 3.26345H3.39667Z" fill="#0D0D0D"/>
</svg>
