<svg width="17" height="19" viewBox="0 0 17 19" fill="none" xmlns="http://www.w3.org/2000/svg">
<path d="M8.5 1.9C10.251 1.9 11.6875 3.1844 11.6875 4.75V7.6H5.3125V4.75C5.3125 3.1844 6.749 1.9 8.5 1.9ZM13.8125 7.6V4.75C13.8125 2.1356 11.424 0 8.5 0C5.576 0 3.1875 2.1356 3.1875 4.75V7.6H2.125C1.56141 7.6 1.02091 7.80018 0.622398 8.1565C0.223883 8.51282 0 8.99609 0 9.5V17.1C0 17.6039 0.223883 18.0872 0.622398 18.4435C1.02091 18.7998 1.56141 19 2.125 19H14.875C15.4386 19 15.9791 18.7998 16.3776 18.4435C16.7761 18.0872 17 17.6039 17 17.1V9.5C17 8.99609 16.7761 8.51282 16.3776 8.1565C15.9791 7.80018 15.4386 7.6 14.875 7.6H13.8125ZM2.125 9.5H14.875V17.1H2.125V9.5Z" fill="#0D0D0D" fill-opacity="0.85"/>
</svg>
