<svg width="36" height="29" viewBox="0 0 36 29" fill="none" xmlns="http://www.w3.org/2000/svg">
<path d="M7.71476 0.528049C8.05273 0.190186 8.51104 0.000384995 8.98893 0.000384995C9.46681 0.000384995 9.92513 0.190186 10.2631 0.528049L17.472 7.73691C17.8002 8.07681 17.9819 8.53205 17.9778 9.00459C17.9737 9.47712 17.7841 9.92914 17.45 10.2633C17.1159 10.5974 16.6638 10.787 16.1913 10.7911C15.7188 10.7952 15.2635 10.6135 14.9236 10.2852L10.7911 6.15276V27.0332C10.7911 27.5112 10.6013 27.9696 10.2633 28.3076C9.9253 28.6456 9.4669 28.8354 8.98893 28.8354C8.51095 28.8354 8.05255 28.6456 7.71457 28.3076C7.37659 27.9696 7.18671 27.5112 7.18671 27.0332V6.15276L3.05423 10.2852C2.71433 10.6135 2.25909 10.7952 1.78655 10.7911C1.31402 10.787 0.862002 10.5974 0.527857 10.2633C0.193711 9.92914 0.00417433 9.47712 6.81285e-05 9.00459C-0.00403807 8.53205 0.177615 8.07681 0.505903 7.73691L7.71476 0.528049ZM25.2089 22.6827V1.80221C25.2089 1.32424 25.3987 0.865838 25.7367 0.527857C26.0747 0.189876 26.5331 0 27.0111 0C27.489 0 27.9475 0.189876 28.2854 0.527857C28.6234 0.865838 28.8133 1.32424 28.8133 1.80221V22.6827L32.9458 18.5502C33.2857 18.2219 33.7409 18.0403 34.2134 18.0444C34.686 18.0485 35.138 18.238 35.4721 18.5721C35.8063 18.9063 35.9958 19.3583 35.9999 19.8308C36.004 20.3034 35.8224 20.7586 35.4941 21.0985L28.2852 28.3074C27.9473 28.6453 27.489 28.835 27.0111 28.835C26.5332 28.835 26.0749 28.6453 25.7369 28.3074L18.528 21.0985C18.1998 20.7586 18.0181 20.3034 18.0222 19.8308C18.0263 19.3583 18.2159 18.9063 18.55 18.5721C18.8841 18.238 19.3362 18.0485 19.8087 18.0444C20.2812 18.0403 20.7365 18.2219 21.0764 18.5502L25.2089 22.6827Z" fill="#0D0D0D"/>
</svg>
