<svg width="26" height="28" viewBox="0 0 26 28" fill="none" xmlns="http://www.w3.org/2000/svg">
<path d="M12.6 2.8C11.1148 2.8 9.69041 3.39 8.6402 4.4402C7.59 5.49041 7 6.91479 7 8.4C7 9.88521 7.59 11.3096 8.6402 12.3598C9.69041 13.41 11.1148 14 12.6 14C14.0852 14 15.5096 13.41 16.5598 12.3598C17.61 11.3096 18.2 9.88521 18.2 8.4C18.2 6.91479 17.61 5.49041 16.5598 4.4402C15.5096 3.39 14.0852 2.8 12.6 2.8ZM4.2 8.4C4.2 6.17218 5.085 4.03561 6.6603 2.4603C8.23561 0.884997 10.3722 0 12.6 0C14.8278 0 16.9644 0.884997 18.5397 2.4603C20.115 4.03561 21 6.17218 21 8.4C21 10.6278 20.115 12.7644 18.5397 14.3397C16.9644 15.915 14.8278 16.8 12.6 16.8C10.3722 16.8 8.23561 15.915 6.6603 14.3397C5.085 12.7644 4.2 10.6278 4.2 8.4ZM7 22.4C5.88609 22.4 4.8178 22.8425 4.03015 23.6302C3.2425 24.4178 2.8 25.4861 2.8 26.6C2.8 26.9713 2.6525 27.3274 2.38995 27.59C2.1274 27.8525 1.7713 28 1.4 28C1.0287 28 0.672601 27.8525 0.41005 27.59C0.1475 27.3274 0 26.9713 0 26.6C0 24.7435 0.737498 22.963 2.05025 21.6503C3.36301 20.3375 5.14348 19.6 7 19.6H18.2C20.0565 19.6 21.837 20.3375 23.1497 21.6503C24.4625 22.963 25.2 24.7435 25.2 26.6C25.2 26.9713 25.0525 27.3274 24.79 27.59C24.5274 27.8525 24.1713 28 23.8 28C23.4287 28 23.0726 27.8525 22.8101 27.59C22.5475 27.3274 22.4 26.9713 22.4 26.6C22.4 25.4861 21.9575 24.4178 21.1699 23.6302C20.3822 22.8425 19.3139 22.4 18.2 22.4H7Z" fill="#0D0D0D"/>
</svg>
